<?xml version="1.0" standalone="no"?>
<!DOCTYPE svg PUBLIC "-//W3C//DTD SVG 20010904//EN"
 "http://www.w3.org/TR/2001/REC-SVG-20010904/DTD/svg10.dtd">
<svg version="1.0" xmlns="http://www.w3.org/2000/svg"
 width="239.000000pt" height="81.000000pt" viewBox="0 0 239.000000 81.000000"
 preserveAspectRatio="xMidYMid meet">

<g transform="translate(0.000000,81.000000) scale(0.100000,-0.100000)"
fill="#000000" stroke="none">
<path d="M1182 643 l-53 -106 98 -99 98 -98 -75 0 -74 0 -48 47 c-26 26 -49
45 -52 42 -6 -7 -126 -248 -126 -255 0 -3 21 6 46 20 l47 26 673 0 674 0 0
265 0 265 -578 0 -577 0 -53 -107z m322 -74 c20 -16 26 -29 26 -59 0 -47 -35
-80 -86 -80 -34 0 -34 -1 -34 -45 0 -43 -1 -45 -30 -45 l-30 0 0 125 0 125 64
0 c49 0 69 -5 90 -21z m221 -4 c30 -29 32 -54 5 -87 -12 -16 -16 -28 -10 -34
5 -5 16 -31 24 -57 l14 -48 -31 3 c-26 3 -32 8 -40 38 -11 44 -30 65 -52 56
-13 -5 -16 -16 -13 -51 3 -43 2 -45 -24 -45 l-28 0 0 125 0 125 65 0 c57 0 69
-3 90 -25z m223 3 c-3 -20 -10 -23 -50 -26 -43 -3 -48 -5 -48 -28 0 -22 4 -24
45 -24 41 0 45 -2 45 -25 0 -23 -4 -25 -45 -25 -43 0 -45 -1 -45 -30 0 -29 1
-30 50 -30 43 0 50 -3 50 -20 0 -18 -7 -20 -80 -20 l-80 0 0 125 0 125 81 0
c78 0 80 -1 77 -22z m190 0 c-2 -18 -9 -23 -28 -21 -74 6 -94 -28 -32 -54 54
-22 72 -42 72 -79 0 -57 -38 -80 -125 -74 -38 2 -46 10 -39 36 5 19 9 21 39
11 72 -22 93 28 24 58 -70 32 -87 78 -44 120 20 21 34 25 80 25 53 0 56 -1 53
-22z m200 0 c-2 -19 -8 -22 -36 -20 -32 3 -62 -11 -62 -30 0 -5 17 -16 38 -25
54 -22 72 -42 72 -80 0 -58 -36 -79 -125 -73 -40 3 -43 5 -38 33 4 22 7 23 44
13 32 -8 42 -7 55 6 21 21 13 33 -42 57 -47 21 -64 48 -56 88 7 35 40 53 100
53 50 0 53 -2 50 -22z"/>
<path d="M1410 510 c0 -33 3 -40 19 -40 20 0 51 24 51 40 0 16 -31 40 -51 40
-16 0 -19 -7 -19 -40z"/>
<path d="M1627 543 c-4 -3 -7 -19 -7 -35 0 -27 3 -29 33 -26 25 2 33 8 35 27
5 32 -39 56 -61 34z"/>
<path d="M325 668 c-3 -8 -4 -90 -3 -183 l3 -170 95 0 95 0 0 180 0 180 -93 3
c-69 2 -94 -1 -97 -10z m45 -63 c0 -8 -4 -15 -10 -15 -5 0 -10 7 -10 15 0 8 5
15 10 15 6 0 10 -7 10 -15z m42 0 c0 -5 -5 -11 -11 -13 -6 -2 -11 4 -11 13 0
9 5 15 11 13 6 -2 11 -8 11 -13z m38 0 c0 -8 -4 -15 -10 -15 -5 0 -10 7 -10
15 0 8 5 15 10 15 6 0 10 -7 10 -15z m40 0 c0 -8 -4 -15 -10 -15 -5 0 -10 7
-10 15 0 8 5 15 10 15 6 0 10 -7 10 -15z m-120 -40 c0 -8 -4 -15 -10 -15 -5 0
-10 7 -10 15 0 8 5 15 10 15 6 0 10 -7 10 -15z m40 0 c0 -8 -4 -15 -10 -15 -5
0 -10 7 -10 15 0 8 5 15 10 15 6 0 10 -7 10 -15z m82 0 c0 -5 -5 -11 -11 -13
-6 -2 -11 4 -11 13 0 9 5 15 11 13 6 -2 11 -8 11 -13z m-82 -40 c0 -8 -4 -15
-10 -15 -5 0 -10 7 -10 15 0 8 5 15 10 15 6 0 10 -7 10 -15z m48 3 c-6 -18
-28 -21 -28 -4 0 9 7 16 16 16 9 0 14 -5 12 -12z m40 0 c-6 -18 -28 -21 -28
-4 0 9 7 16 16 16 9 0 14 -5 12 -12z m-128 -33 c0 -8 -7 -15 -15 -15 -16 0
-20 12 -8 23 11 12 23 8 23 -8z m40 -5 c0 -5 -4 -10 -10 -10 -5 0 -10 5 -10
10 0 6 5 10 10 10 6 0 10 -4 10 -10z m40 0 c0 -5 -4 -10 -10 -10 -5 0 -10 5
-10 10 0 6 5 10 10 10 6 0 10 -4 10 -10z m-74 -101 c10 -17 -13 -36 -27 -22
-12 12 -4 33 11 33 5 0 12 -5 16 -11z m74 -9 c0 -5 -4 -10 -10 -10 -5 0 -10 5
-10 10 0 6 5 10 10 10 6 0 10 -4 10 -10z m50 0 c0 -5 -7 -10 -15 -10 -8 0 -15
5 -15 10 0 6 7 10 15 10 8 0 15 -4 15 -10z m-67 -47 c-7 -2 -19 -2 -25 0 -7 3
-2 5 12 5 14 0 19 -2 13 -5z"/>
<path d="M118 633 c29 -2 74 -2 100 0 26 2 2 3 -53 3 -55 0 -76 -1 -47 -3z"/>
<path d="M660 465 l0 -125 80 0 c73 0 80 2 80 19 0 17 -8 20 -52 23 -49 3 -53
5 -56 31 -3 26 -2 27 47 27 48 0 51 2 51 25 0 23 -3 25 -50 25 -47 0 -50 2
-50 25 0 23 3 25 50 25 47 0 50 2 50 25 0 24 -2 25 -75 25 l-75 0 0 -125z"/>
<path d="M88 543 c23 -2 59 -2 80 0 20 2 1 4 -43 4 -44 0 -61 -2 -37 -4z"/>
<path d="M152 443 c27 -2 69 -2 96 0 26 2 4 3 -48 3 -52 0 -74 -1 -48 -3z"/>
<path d="M98 353 c23 -2 59 -2 80 0 20 2 1 4 -43 4 -44 0 -61 -2 -37 -4z"/>
<path d="M1136 148 c-9 -34 -7 -76 3 -82 11 -7 21 85 11 97 -4 5 -10 -2 -14
-15z"/>
<path d="M1211 144 c-17 -22 -23 -24 -36 -14 -19 16 -19 1 0 -23 13 -18 14
-17 32 9 l18 28 6 -44 6 -45 1 58 c1 31 0 57 -2 57 -3 0 -14 -12 -25 -26z"/>
<path d="M1360 118 l0 -53 35 -2 c26 -2 37 2 45 17 15 28 -4 60 -35 60 -16 0
-25 6 -25 15 0 8 -4 15 -10 15 -5 0 -10 -24 -10 -52z m65 -18 c0 -16 -6 -26
-18 -28 -19 -4 -32 20 -23 44 9 25 41 13 41 -16z"/>
<path d="M1500 121 c0 -28 5 -53 10 -56 6 -4 10 15 10 49 0 31 -4 56 -10 56
-5 0 -10 -22 -10 -49z"/>
<path d="M1687 163 c-17 -16 -5 -42 23 -52 17 -5 30 -15 30 -21 0 -18 -29 -23
-47 -9 -14 12 -16 12 -11 -1 6 -21 52 -24 68 -6 16 20 1 41 -36 50 -33 9 -25
32 10 29 14 -1 24 2 21 8 -7 10 -48 12 -58 2z"/>
<path d="M1883 115 c0 -33 2 -45 4 -27 2 18 2 45 0 60 -2 15 -4 0 -4 -33z"/>
<path d="M2008 148 c-2 -7 -2 -29 2 -48 3 -25 11 -36 25 -38 16 -2 17 -1 6 7
-19 12 -22 51 -5 58 11 4 11 8 -1 19 -17 17 -22 18 -27 2z"/>
<path d="M1272 128 c-30 -30 -1 -75 43 -64 22 6 26 11 23 39 -2 26 -8 33 -28
35 -14 2 -31 -3 -38 -10z m56 -26 c4 -30 -26 -42 -44 -17 -10 14 -11 22 -2 32
16 20 42 12 46 -15z"/>
<path d="M1473 100 c0 -25 2 -35 4 -22 2 12 2 32 0 45 -2 12 -4 2 -4 -23z"/>
<path d="M1547 134 c-4 -4 -7 -20 -7 -35 0 -22 6 -30 26 -35 14 -4 30 -2 36 4
8 8 3 11 -17 9 -15 -1 -30 4 -32 11 -3 8 6 12 27 12 25 0 31 4 28 18 -3 17
-48 29 -61 16z m48 -14 c4 -6 -5 -10 -20 -10 -15 0 -24 4 -20 10 3 6 12 10 20
10 8 0 17 -4 20 -10z"/>
<path d="M1782 128 c-30 -30 0 -75 42 -64 27 7 38 35 24 60 -11 19 -49 21 -66
4z m56 -26 c4 -30 -26 -42 -44 -17 -10 14 -11 22 -2 32 16 20 42 12 46 -15z"/>
<path d="M1911 115 c-1 -41 10 -55 42 -53 25 2 27 6 26 43 l-2 40 -6 -35 c-8
-45 -38 -53 -47 -13 -10 46 -12 50 -13 18z"/>
<path d="M2073 100 c0 -25 2 -35 4 -22 2 12 2 32 0 45 -2 12 -4 2 -4 -23z"/>
<path d="M2110 125 c-10 -12 -10 -21 -2 -40 14 -31 56 -34 72 -5 24 44 -38 83
-70 45z m55 -25 c0 -16 -6 -26 -18 -28 -19 -4 -32 20 -23 44 9 25 41 13 41
-16z"/>
<path d="M2211 98 c2 -43 2 -43 8 -8 8 45 38 53 47 13 10 -47 13 -50 11 -8 -2
37 -4 40 -34 43 -33 3 -33 3 -32 -40z"/>
<path d="M2300 125 c0 -9 11 -20 25 -27 28 -12 23 -32 -6 -25 -11 3 -19 1 -19
-5 0 -5 12 -8 27 -6 37 4 43 35 9 44 -32 8 -34 21 -3 27 19 4 18 4 -5 6 -19 1
-28 -4 -28 -14z"/>
</g>
</svg>
